<?xml version="1.0" standalone="no"?><!DOCTYPE svg PUBLIC "-//W3C//DTD SVG 1.1//EN" "http://www.w3.org/Graphics/SVG/1.1/DTD/svg11.dtd"><svg t="1716287792114" class="icon" viewBox="0 0 1024 1024" version="1.1" xmlns="http://www.w3.org/2000/svg" p-id="26561" xmlns:xlink="http://www.w3.org/1999/xlink" width="200" height="200"><path d="M56.888889 56.888889m56.888889 0l796.444444 0q56.888889 0 56.888889 56.888889l0 625.777778q0 56.888889-56.888889 56.888888l-796.444444 0q-56.888889 0-56.888889-56.888888l0-625.777778q0-56.888889 56.888889-56.888889Z" fill="#B2E3FD" p-id="26562"></path><path d="M227.555556 910.222222m28.444444 0l512 0q28.444444 0 28.444444 28.444445l0 0q0 28.444444-28.444444 28.444444l-512 0q-28.444444 0-28.444444-28.444444l0 0q0-28.444444 28.444444-28.444445Z" fill="#00A3F9" p-id="26563"></path><path d="M483.555556 796.444444h56.888888v113.777778h-56.888888zM697.457778 451.242667l-256.455111 149.589333A28.444444 28.444444 0 0 1 398.222222 576.256V277.077333a28.444444 28.444444 0 0 1 42.780445-24.576l256.426666 149.617778a28.444444 28.444444 0 0 1 0 49.123556z" fill="#00A3F9" p-id="26564"></path></svg>