<?xml version="1.0" standalone="no"?><!DOCTYPE svg PUBLIC "-//W3C//DTD SVG 1.1//EN" "http://www.w3.org/Graphics/SVG/1.1/DTD/svg11.dtd"><svg t="1716281990354" class="icon" viewBox="0 0 1024 1024" version="1.1" xmlns="http://www.w3.org/2000/svg" p-id="50880" xmlns:xlink="http://www.w3.org/1999/xlink" width="200" height="200"><path d="M64 384v544a96 96 0 0 0 96 96h704a96 96 0 0 0 96-96V384z m648.26 283.82a23.84 23.84 0 0 1-7.06 13.78L626 758.8l18.8 109.2a24 24 0 0 1-34.8 25.2l-98-51.6-97.8 51.6a24 24 0 0 1-34.8-25.2l18.8-109.2-79.2-77.2a24 24 0 0 1 13.2-41l109.4-16 49-99.2a24 24 0 0 1 43 0l49 99.2 109.4 16a24 24 0 0 1 20.26 27.22zM672 256h64a32 32 0 0 0 32-32V32a32 32 0 0 0-32-32h-64a32 32 0 0 0-32 32v192a32 32 0 0 0 32 32z m-384 0h64a32 32 0 0 0 32-32V32a32 32 0 0 0-32-32h-64a32 32 0 0 0-32 32v192a32 32 0 0 0 32 32z" opacity=".4" p-id="50881" fill="#ed6723"></path><path d="M692 640.6l-109.4-16-49-99.2a24 24 0 0 0-43 0l-49 99.2-109.4 16a24 24 0 0 0-13.2 41l79.2 77.2-18.8 109.2a24 24 0 0 0 34.8 25.2l97.8-51.6 98 51.6a24 24 0 0 0 34.8-25.2l-18.8-109.2 79.2-77.2a24 24 0 0 0-13.2-41zM864 128h-96v96a32 32 0 0 1-32 32h-64a32 32 0 0 1-32-32V128H384v96a32 32 0 0 1-32 32h-64a32 32 0 0 1-32-32V128H160a96 96 0 0 0-96 96v160h896v-160a96 96 0 0 0-96-96z" p-id="50882" fill="#ed6723"></path></svg>