<?xml version="1.0" standalone="no"?><!DOCTYPE svg PUBLIC "-//W3C//DTD SVG 1.1//EN" "http://www.w3.org/Graphics/SVG/1.1/DTD/svg11.dtd"><svg t="1716288206881" class="icon" viewBox="0 0 1024 1024" version="1.1" xmlns="http://www.w3.org/2000/svg" p-id="63552" xmlns:xlink="http://www.w3.org/1999/xlink" width="200" height="200"><path d="M273.0496 0h477.9008C932.9664 0 1024 91.0336 1024 273.0496v477.9008C1024 932.9664 932.9664 1024 750.9504 1024H273.0496C91.0336 1024 0 932.9664 0 750.9504V273.0496C0 91.0336 91.0336 0 273.0496 0z" fill="#6dcf33" fill-opacity=".13" p-id="63553"></path><path d="M669.7472 765.696a45.568 45.568 0 1 0 91.1872 0 45.568 45.568 0 0 0-91.136 0z m-272.9472 0a45.568 45.568 0 1 0 91.136 0 45.568 45.568 0 0 0-91.136 0z m403.0464-427.1104l-419.2256 3.328L368.64 282.2656l-74.24-24.7808a29.184 29.184 0 0 0-18.432 55.296l42.1376 14.08 68.7104 343.6032 0.512 2.304c4.608 18.5856 22.528 31.6928 42.5984 29.0816l19.5584-2.816 290.9184-46.08a38.8608 38.8608 0 0 0 33.28-31.8464l45.2096-259.7376a19.4048 19.4048 0 0 0-19.0464-22.784z" fill="#6dcf33" p-id="63554"></path></svg>