<?xml version="1.0" standalone="no"?><!DOCTYPE svg PUBLIC "-//W3C//DTD SVG 1.1//EN" "http://www.w3.org/Graphics/SVG/1.1/DTD/svg11.dtd"><svg t="1716282874846" class="icon" viewBox="0 0 1024 1024" version="1.1" xmlns="http://www.w3.org/2000/svg" p-id="90909" xmlns:xlink="http://www.w3.org/1999/xlink" width="200" height="200"><path d="M863.176 526.693H964.75c26.54 0 48.085-21.604 48.085-48.086s-21.545-48.086-48.085-48.086H863.176c-26.54 0-48.085 21.546-48.085 48.086s21.545 48.086 48.085 48.086z m3.891-150.355c6.389 0 12.603-1.278 18.526-3.717l93.674-39.2a47.737 47.737 0 0 0 25.96-26.134c4.878-11.905 4.82-24.972-0.117-36.819a47.453 47.453 0 0 0-26.133-25.901c-11.905-4.878-24.972-4.82-36.82 0.116l-93.673 39.2a47.737 47.737 0 0 0-25.96 26.134c-4.878 11.905-4.82 24.972 0.116 36.82a48.272 48.272 0 0 0 44.427 29.501z m112.258 250.65l-93.674-39.2c-24.45-10.222-52.673 1.335-62.894 25.784-10.222 24.45 1.335 52.674 25.785 62.895l93.674 39.2c5.923 2.497 12.137 3.717 18.526 3.717a47.975 47.975 0 0 0 44.368-29.56c10.222-24.391-1.335-52.615-25.785-62.837zM687.85 70.517L381.855 247.76H119.881c-57.61 0-104.36 46.692-104.36 104.36v267.433c0 57.61 46.692 104.36 104.36 104.36v110.341c0 67.425 52.325 124.977 119.75 127.532 70.85 2.671 129.39-54.184 129.39-124.454V723.972h10.976l308.491 163.131c31.07 16.435 68.528-6.098 68.528-41.29V111.46c0-35.541-38.039-58.016-69.166-40.942z m-14.345 593.521c0 26.308-21.313 47.621-47.62 47.621s-47.622-21.313-47.622-47.621V348.695c0-26.308 21.313-47.622 47.621-47.622s47.621 21.314 47.621 47.622v315.344z" fill="#FF8E12" p-id="90910"></path><path d="M757.016 534.765V111.46c0-35.483-38.039-58.016-69.166-40.942L381.855 247.76H119.881c-57.61 0-104.36 46.75-104.36 104.36v267.433c0 57.61 46.692 104.36 104.36 104.36v110.341c0 3.252 0.232 6.389 0.465 9.583a564.31 564.31 0 0 0 127.299 14.634c41.523 0 81.943-4.646 120.911-13.183 0.174-2.671 0.407-5.284 0.407-8.014V723.914h10.976l130.9 69.167a564.484 564.484 0 0 0 115.8-81.479c-0.232 0-0.523 0.058-0.755 0.058-26.308 0-47.621-21.313-47.621-47.621V348.695c0-26.308 21.313-47.622 47.621-47.622s47.621 21.314 47.621 47.622v314.531a563.851 563.851 0 0 0 83.511-128.46z" fill="#FCA315" p-id="90911"></path><path d="M578.263 381.971v-33.276c0-23.404 16.842-42.801 39.084-46.808a560.57 560.57 0 0 0 38.968-205.758c0-2.44-0.174-4.82-0.174-7.26L381.855 247.761H119.881c-57.61 0-104.36 46.75-104.36 104.36v267.433c0 12.08 2.149 23.578 5.924 34.38 23.694 3.02 47.795 4.762 72.36 4.762 206.281 0 386.544-111.154 484.458-276.725z" fill="#FCB138" p-id="90912"></path><path d="M400.439 236.96l-18.584 10.743H119.881c-57.61 0-104.36 46.75-104.36 104.36v103.895c156.917-17.538 294.206-99.54 384.918-218.999z" fill="#FFC65E" p-id="90913"></path></svg>