<?xml version="1.0" standalone="no"?><!DOCTYPE svg PUBLIC "-//W3C//DTD SVG 1.1//EN" "http://www.w3.org/Graphics/SVG/1.1/DTD/svg11.dtd"><svg t="1716287572937" class="icon" viewBox="0 0 1024 1024" version="1.1" xmlns="http://www.w3.org/2000/svg" p-id="6880" xmlns:xlink="http://www.w3.org/1999/xlink" width="200" height="200"><path d="M896 170.666667H128a46.933333 46.933333 0 0 0-42.666667 42.666666v597.333334a46.933333 46.933333 0 0 0 42.666667 42.666666h768a46.933333 46.933333 0 0 0 42.666667-42.666666V213.333333a46.933333 46.933333 0 0 0-42.666667-42.666666z m-247.466667 379.733333l-200.533333 102.4a46.933333 46.933333 0 0 1-64-38.4V409.6a46.933333 46.933333 0 0 1 64-38.4l200.533333 102.4a42.666667 42.666667 0 0 1 0 76.8z" fill="#d0f2c0" p-id="6881"></path><path d="M384 409.6v204.8a42.666667 42.666667 0 0 0 59.733333 38.4l204.8-102.4a42.666667 42.666667 0 0 0 0-76.8l-204.8-102.4a42.666667 42.666667 0 0 0-59.733333 38.4z" fill="#d0f2c0" opacity=".4" p-id="6882"></path></svg>